Coordinates
version=1
nRows=4
nColumns=69
inDegrees=yes

Units are S.I. units (second, meters, Newtons, ...)
If the header above contains a line with 'inDegrees', this indicates whether rotational values are in degrees (yes) or radians (no).

endheader
time	pelvis_tilt	pelvis_list	pelvis_rotation	pelvis_tx	pelvis_ty	pelvis_tz	hip_flexion_r	hip_adduction_r	hip_rotation_r	knee_angle_r	knee_angle_r_beta	ankle_angle_r	subtalar_angle_r	mtp_angle_r	hip_flexion_l	hip_adduction_l	hip_rotation_l	knee_angle_l	knee_angle_l_beta	ankle_angle_l	subtalar_angle_l	mtp_angle_l	L5_S1_Flex_Ext	L5_S1_Lat_Bending	L5_S1_axial_rotation	L4_L5_Flex_Ext	L4_L5_Lat_Bending	L4_L5_axial_rotation	L3_L4_Flex_Ext	L3_L4_Lat_Bending	L3_L4_axial_rotation	L2_L3_Flex_Ext	L2_L3_Lat_Bending	L2_L3_axial_rotation	L1_L2_Flex_Ext	L1_L2_Lat_Bending	L1_L2_axial_rotation	L1_T12_Flex_Ext	L1_T12_Lat_Bending	L1_T12_axial_rotation	Abs_r3	Abs_r2	Abs_r1	Abs_t1	Abs_t2	neck_flexion	neck_bending	neck_rotation	sh_tx_r	sh_ty_r	sh_tz_r	sh_plane_elev_r	sh_elev_r	sh_axial_rot_r	elbow_flex_r	pro_sup_r	wrist_flex_r	wrist_dev_r	sh_tx_l	sh_ty_l	sh_tz_l	sh_plane_elev_l	sh_elev_l	sh_axial_rot_l	elbow_flex_l	pro_sup_l	wrist_flex_l	wrist_dev_l
      0.43333330	    -23.39646704	      3.73233039	    -95.94407659	     -0.06359163	      0.91110331	     -1.12782483	     27.48989907	     -3.25604574	    -22.98203507	     58.89817233	      1.02796703	     11.21524729	      5.14928998	      0.00000000	     40.63250074	    -15.03532366	     20.40672520	     63.14324133	      1.10205746	     16.54048086	    -19.31116632	      0.00000000	     -0.10911962	     -0.65606901	      0.12219665	     -0.20264605	     -0.87257178	      0.12983394	     -0.17927263	     -1.59516618	      0.12983394	     -0.12471281	     -1.59516618	      0.10692207	     -0.10132848	     -1.33785592	      0.09928478	     -0.06235095	     -1.01625089	      0.09164749	     -0.77943054	     -7.42158380	      0.67962110	      0.00000000	      0.00000000	      0.00000000	      0.00000000	      0.00000000	      0.03838146	      0.05903920	     -0.00550475	    -30.31156595	     32.64589877	    -19.95686028	    100.13254973	     89.99559364	      0.00000000	      0.00000000	      0.00018242	      0.01084237	     -0.00501681	     -0.77610083	     28.65903022	      5.10136199	     22.95484952	     89.99559364	      0.00000000	      0.00000000
      0.45000000	    -23.77702307	      3.65231919	    -96.87995670	     -0.06628650	      0.91027898	     -1.11915359	     27.76634504	     -4.63336692	    -21.57442809	     56.16325568	      0.98023373	      9.74686383	      6.98817315	      0.00000000	     40.34620974	    -15.99139821	     19.94670867	     64.23808545	      1.12116610	     16.64891898	    -19.26168747	      0.00000000	     -0.10531007	     -0.72016108	      0.14768908	     -0.19557134	     -0.95781424	      0.15691964	     -0.17301392	     -1.75099966	      0.15691964	     -0.12035888	     -1.75099966	      0.12922794	     -0.09779093	     -1.46855248	      0.11999737	     -0.06017418	     -1.11552952	      0.11076681	     -0.75221932	     -8.14660620	      0.82140234	      0.00000000	      0.00000000	      0.00000000	      0.00000000	      0.00000000	      0.03858355	      0.05979892	     -0.00559580	    -30.87684540	     33.19756477	    -20.66714559	     99.99011899	     89.99559364	      0.00000000	      0.00000000	     -0.00384032	      0.01058184	     -0.00518031	     -0.80895626	     29.06189731	      4.92494908	     23.12727480	     89.99559364	      0.00000000	      0.00000000
      0.46666670	    -24.19624335	      3.55550818	    -97.58987189	     -0.06895648	      0.91016425	     -1.11001380	     27.84167619	     -5.84139372	    -20.24194756	     53.27909092	      0.92989556	      8.63149730	      8.98530822	      0.00000000	     39.60646768	    -17.07183455	     19.52558109	     64.58700973	      1.12725597	     17.01550660	    -19.14183722	      0.00000000	     -0.10760422	     -0.77518138	      0.65151521	     -0.19983179	     -1.03099123	      0.69223491	     -0.17678297	     -1.88477601	      0.69223491	     -0.12298086	     -1.88477601	      0.57007581	     -0.09992127	     -1.58074987	      0.52935611	     -0.06148505	     -1.20075596	      0.48863641	     -0.76860615	     -8.76900680	      3.62353213	      0.00000000	      0.00000000	      0.00000000	      0.00000000	      0.00000000	      0.03787644	      0.05933038	     -0.00548067	    -36.18720116	     34.60813325	    -20.06504873	    100.37332345	     89.99559364	      0.00000000	      0.00000000	      0.00261011	      0.00934234	     -0.00518324	      1.39724018	     29.48562409	      2.65277820	     24.60346589	     89.99559364	      0.00000000	      0.00000000
      0.48333330	    -24.63503241	      3.40082093	    -97.48576138	     -0.07088154	      0.91061109	     -1.10052285	     27.56361052	     -7.15681919	    -19.42716282	     50.39058395	      0.87948160	      7.69532042	     10.71432212	      0.00000000	     38.64736930	    -17.83016346	     19.59967585	     64.25610318	      1.12148056	     17.54297017	    -19.01198061	      0.00000000	     -0.10426705	     -0.83511719	      0.72391089	     -0.19363434	     -1.11070587	      0.76915532	     -0.17130034	     -2.03050394	      0.76915532	     -0.11916681	     -2.03050394	      0.63342203	     -0.09682238	     -1.70297098	      0.58817760	     -0.05957819	     -1.29359653	      0.54293317	     -0.74476912	     -9.44701271	      4.02617521	      0.00000000	      0.00000000	      0.00000000	      0.00000000	      0.00000000	      0.03605928	      0.05966721	     -0.00555436	    -37.56929865	     35.34473296	    -20.62345273	     99.87583552	     89.99559364	      0.00000000	      0.00000000	      0.00390040	      0.00938145	     -0.00531501	      1.86294209	     30.07341872	      2.09856667	     25.41032583	     89.99559364	      0.00000000	      0.00000000
